<svg width="73" height="73" viewBox="0 0 73 73" fill="none" xmlns="http://www.w3.org/2000/svg">
<path d="M13.3294 0C5.94548 0 0 5.94548 0 13.3294V59.6707C0 67.0546 5.94548 73.0001 13.3294 73.0001H38.446V44.4616H30.8996V34.1869H38.446V25.4086C38.446 18.5119 42.9047 12.1796 53.176 12.1796C57.3346 12.1796 60.4098 12.5789 60.4098 12.5789L60.168 22.1738C60.168 22.1738 57.0317 22.1442 53.6094 22.1442C49.9054 22.1442 49.3115 23.8508 49.3115 26.6839V34.1869H60.4622L59.9764 44.4617H49.3115V73.0002H59.6706C67.0545 73.0002 73 67.0547 73 59.6708V13.3294C73 5.94556 67.0545 7.3e-05 59.6706 7.3e-05H13.3293L13.3294 0Z" fill="white"/>
</svg>
