<svg width="67" height="67" viewBox="0 0 67 67" fill="none" xmlns="http://www.w3.org/2000/svg">
<path fill-rule="evenodd" clip-rule="evenodd" d="M19.7061 0.242498C23.274 0.078248 24.4116 0.041748 33.5001 0.041748C42.5886 0.041748 43.7262 0.0812897 47.291 0.242498C50.8558 0.403706 53.2892 0.972498 55.4183 1.79679C57.6479 2.63933 59.6706 3.95637 61.3435 5.65971C63.0468 7.32958 64.3608 9.34925 65.2003 11.5818C66.0277 13.711 66.5934 16.1443 66.7577 19.7031C66.9219 23.277 66.9584 24.4146 66.9584 33.5001C66.9584 42.5886 66.9189 43.7262 66.7577 47.294C66.5965 50.8528 66.0277 53.2861 65.2003 55.4153C64.3608 57.6482 63.0446 59.6712 61.3435 61.3435C59.6706 63.0468 57.6479 64.3608 55.4183 65.2003C53.2892 66.0277 50.8558 66.5934 47.2971 66.7577C43.7262 66.9219 42.5886 66.9584 33.5001 66.9584C24.4116 66.9584 23.274 66.9189 19.7061 66.7577C16.1474 66.5965 13.714 66.0277 11.5849 65.2003C9.35205 64.3607 7.32903 63.0446 5.65666 61.3435C3.95449 59.6726 2.63725 57.6506 1.79679 55.4183C0.972498 53.2892 0.406748 50.8558 0.242498 47.2971C0.078248 43.7231 0.041748 42.5855 0.041748 33.5001C0.041748 24.4116 0.0812897 23.274 0.242498 19.7092C0.403706 16.1443 0.972498 13.711 1.79679 11.5818C2.63849 9.3495 3.95673 7.32749 5.65971 5.65666C7.3297 3.95486 9.35068 2.63764 11.5818 1.79679C13.711 0.972498 16.1443 0.406748 19.7031 0.242498H19.7061ZM47.0203 6.265C43.492 6.10379 42.4335 6.07033 33.5001 6.07033C24.5667 6.07033 23.5082 6.10379 19.9799 6.265C16.7162 6.41404 14.9459 6.9585 13.7657 7.41779C12.2054 8.02612 11.0891 8.747 9.91804 9.91804C8.80797 10.998 7.95367 12.3127 7.41779 13.7657C6.9585 14.9459 6.41404 16.7162 6.265 19.9799C6.10379 23.5082 6.07033 24.5667 6.07033 33.5001C6.07033 42.4335 6.10379 43.492 6.265 47.0203C6.41404 50.284 6.9585 52.0542 7.41779 53.2344C7.95312 54.6853 8.80783 56.0023 9.91804 57.0821C10.9978 58.1923 12.3149 59.047 13.7657 59.5824C14.9459 60.0417 16.7162 60.5861 19.9799 60.7352C23.5082 60.8964 24.5637 60.9298 33.5001 60.9298C42.4365 60.9298 43.492 60.8964 47.0203 60.7352C50.284 60.5861 52.0542 60.0417 53.2344 59.5824C54.7948 58.974 55.9111 58.2532 57.0821 57.0821C58.1923 56.0023 59.047 54.6853 59.5824 53.2344C60.0417 52.0542 60.5861 50.284 60.7352 47.0203C60.8964 43.492 60.9298 42.4335 60.9298 33.5001C60.9298 24.5667 60.8964 23.5082 60.7352 19.9799C60.5861 16.7162 60.0417 14.9459 59.5824 13.7657C58.974 12.2054 58.2532 11.0891 57.0821 9.91804C56.0021 8.80805 54.6874 7.95376 53.2344 7.41779C52.0542 6.9585 50.284 6.41404 47.0203 6.265ZM29.2265 43.8144C31.6132 44.8079 34.2708 44.942 36.7453 44.1937C39.2199 43.4455 41.3579 41.8614 42.7942 39.7119C44.2306 37.5624 44.8761 34.981 44.6206 32.4084C44.365 29.8359 43.2243 27.4319 41.3932 25.607C40.2259 24.4404 38.8145 23.5472 37.2606 22.9916C35.7067 22.436 34.0489 22.2318 32.4066 22.3938C30.7643 22.5558 29.1783 23.0799 27.7629 23.9284C26.3475 24.7768 25.1378 25.9286 24.2209 27.3007C23.304 28.6728 22.7027 30.2312 22.4604 31.8635C22.2181 33.4959 22.3407 35.1617 22.8194 36.741C23.2981 38.3203 24.121 39.7738 25.2289 40.9969C26.3368 42.22 27.7021 43.1823 29.2265 43.8144ZM21.3395 21.3395C22.9364 19.7425 24.8323 18.4758 26.9188 17.6115C29.0053 16.7472 31.2416 16.3024 33.5001 16.3024C35.7585 16.3024 37.9948 16.7472 40.0813 17.6115C42.1679 18.4758 44.0637 19.7425 45.6607 21.3395C47.2576 22.9364 48.5244 24.8323 49.3886 26.9188C50.2529 29.0053 50.6977 31.2416 50.6977 33.5001C50.6977 35.7585 50.2529 37.9948 49.3886 40.0813C48.5244 42.1679 47.2576 44.0637 45.6607 45.6607C42.4355 48.8858 38.0612 50.6977 33.5001 50.6977C28.939 50.6977 24.5647 48.8858 21.3395 45.6607C18.1143 42.4355 16.3024 38.0612 16.3024 33.5001C16.3024 28.939 18.1143 24.5647 21.3395 21.3395ZM54.5119 18.8636C54.9076 18.4903 55.2245 18.0414 55.4436 17.5434C55.6627 17.0455 55.7797 16.5086 55.7876 15.9647C55.7956 15.4207 55.6943 14.8807 55.4898 14.3765C55.2852 13.8724 54.9816 13.4145 54.597 13.0298C54.2123 12.6451 53.7543 12.3415 53.2502 12.137C52.7461 11.9325 52.2061 11.8312 51.6621 11.8391C51.1181 11.847 50.5813 11.964 50.0833 12.1832C49.5854 12.4023 49.1365 12.7191 48.7632 13.1148C48.0371 13.8845 47.6397 14.9067 47.6551 15.9647C47.6705 17.0226 48.0976 18.0328 48.8458 18.781C49.5939 19.5291 50.6042 19.9562 51.6621 19.9717C52.72 19.9871 53.7423 19.5896 54.5119 18.8636Z" fill="black"/>
</svg>
