<svg width="67" height="67" viewBox="0 0 67 67" fill="none" xmlns="http://www.w3.org/2000/svg">
<path fill-rule="evenodd" clip-rule="evenodd" d="M19.706 0.242498C23.2739 0.078248 24.4115 0.041748 33.5 0.041748C42.5885 0.041748 43.7261 0.0812897 47.2909 0.242498C50.8557 0.403706 53.2891 0.972498 55.4182 1.79679C57.6478 2.63933 59.6705 3.95637 61.3434 5.65971C63.0467 7.32958 64.3607 9.34925 65.2002 11.5818C66.0276 13.711 66.5933 16.1443 66.7576 19.7031C66.9218 23.277 66.9583 24.4146 66.9583 33.5001C66.9583 42.5886 66.9188 43.7262 66.7576 47.294C66.5964 50.8528 66.0276 53.2861 65.2002 55.4153C64.3607 57.6482 63.0446 59.6712 61.3434 61.3435C59.6705 63.0468 57.6478 64.3608 55.4182 65.2003C53.2891 66.0277 50.8557 66.5934 47.297 66.7577C43.7261 66.9219 42.5885 66.9584 33.5 66.9584C24.4115 66.9584 23.2739 66.9189 19.706 66.7577C16.1473 66.5965 13.714 66.0277 11.5848 65.2003C9.35196 64.3607 7.32895 63.0446 5.65658 61.3435C3.9544 59.6726 2.63716 57.6506 1.79671 55.4183C0.972414 53.2892 0.406664 50.8558 0.242414 47.2971C0.0781641 43.7231 0.0416641 42.5855 0.0416641 33.5001C0.0416641 24.4116 0.0812057 23.274 0.242414 19.7092C0.403622 16.1443 0.972414 13.711 1.79671 11.5818C2.6384 9.3495 3.95665 7.32749 5.65962 5.65666C7.32962 3.95486 9.3506 2.63764 11.5817 1.79679C13.7109 0.972498 16.1442 0.406748 19.703 0.242498H19.706ZM47.0202 6.265C43.4919 6.10379 42.4334 6.07033 33.5 6.07033C24.5666 6.07033 23.5081 6.10379 19.9798 6.265C16.7161 6.41404 14.9458 6.9585 13.7657 7.41779C12.2053 8.02612 11.089 8.747 9.91796 9.91804C8.80788 10.998 7.95359 12.3127 7.41771 13.7657C6.95841 14.9459 6.41396 16.7162 6.26491 19.9799C6.10371 23.5082 6.07025 24.5667 6.07025 33.5001C6.07025 42.4335 6.10371 43.492 6.26491 47.0203C6.41396 50.284 6.95841 52.0542 7.41771 53.2344C7.95304 54.6853 8.80775 56.0023 9.91796 57.0821C10.9977 58.1923 12.3148 59.047 13.7657 59.5824C14.9458 60.0417 16.7161 60.5861 19.9798 60.7352C23.5081 60.8964 24.5636 60.9298 33.5 60.9298C42.4364 60.9298 43.4919 60.8964 47.0202 60.7352C50.2839 60.5861 52.0542 60.0417 53.2343 59.5824C54.7947 58.974 55.911 58.2532 57.082 57.0821C58.1922 56.0023 59.047 54.6853 59.5823 53.2344C60.0416 52.0542 60.586 50.284 60.7351 47.0203C60.8963 43.492 60.9297 42.4335 60.9297 33.5001C60.9297 24.5667 60.8963 23.5082 60.7351 19.9799C60.586 16.7162 60.0416 14.9459 59.5823 13.7657C58.974 12.2054 58.2531 11.0891 57.082 9.91804C56.002 8.80805 54.6873 7.95376 53.2343 7.41779C52.0542 6.9585 50.2839 6.41404 47.0202 6.265V6.265ZM29.2265 43.8144C31.6131 44.8079 34.2707 44.942 36.7452 44.1937C39.2198 43.4455 41.3578 41.8614 42.7941 39.7119C44.2305 37.5624 44.876 34.981 44.6205 32.4084C44.3649 29.8359 43.2242 27.4319 41.3931 25.607C40.2258 24.4404 38.8144 23.5472 37.2605 22.9916C35.7066 22.436 34.0488 22.2318 32.4065 22.3938C30.7642 22.5558 29.1783 23.0799 27.7628 23.9284C26.3474 24.7768 25.1377 25.9286 24.2208 27.3007C23.3039 28.6728 22.7027 30.2312 22.4603 31.8635C22.218 33.4959 22.3406 35.1617 22.8193 36.741C23.298 38.3203 24.121 39.7739 25.2289 40.9969C26.3367 42.22 27.702 43.1823 29.2265 43.8144ZM21.3394 21.3395C22.9364 19.7425 24.8322 18.4758 26.9187 17.6115C29.0053 16.7472 31.2416 16.3024 33.5 16.3024C35.7584 16.3024 37.9947 16.7472 40.0813 17.6115C42.1678 18.4758 44.0636 19.7425 45.6606 21.3395C47.2575 22.9364 48.5243 24.8323 49.3886 26.9188C50.2528 29.0053 50.6977 31.2417 50.6977 33.5001C50.6977 35.7585 50.2528 37.9948 49.3886 40.0813C48.5243 42.1679 47.2575 44.0637 45.6606 45.6607C42.4354 48.8858 38.0611 50.6977 33.5 50.6977C28.9389 50.6977 24.5646 48.8858 21.3394 45.6607C18.1142 42.4355 16.3023 38.0612 16.3023 33.5001C16.3023 28.939 18.1142 24.5647 21.3394 21.3395V21.3395ZM54.5118 18.8636C54.9076 18.4903 55.2244 18.0414 55.4435 17.5434C55.6626 17.0455 55.7796 16.5086 55.7876 15.9647C55.7955 15.4207 55.6942 14.8807 55.4897 14.3765C55.2852 13.8724 54.9816 13.4145 54.5969 13.0298C54.2122 12.6451 53.7542 12.3415 53.2501 12.137C52.746 11.9325 52.206 11.8312 51.662 11.8391C51.118 11.847 50.5812 11.964 50.0832 12.1832C49.5853 12.4023 49.1364 12.7191 48.7631 13.1148C48.0371 13.8845 47.6396 14.9067 47.655 15.9647C47.6704 17.0226 48.0975 18.0328 48.8457 18.781C49.5938 19.5291 50.6041 19.9562 51.662 19.9717C52.7199 19.9871 53.7422 19.5896 54.5118 18.8636V18.8636Z" fill="white"/>
</svg>
